<svg version="1" xmlns="http://www.w3.org/2000/svg" width="682.667" height="682.667" viewBox="0 0 512.000000 512.000000"><path d="M190.7.7c-.4.3-.7 11.2-.7 24.1 0 22.7-.1 23.4-2 23.9-1.1.3-7.8 2.9-14.8 5.7-37.3 15.1-71.2 42-94.5 74.8-13.9 19.6-26 44.5-31.9 65.5l-2.3 8.2-19.6.3-19.7.3 23.4 40.4c12.8 22.2 23.7 40.8 24.1 41.2.7.7 46.4-76.6 48.1-81.2.2-.5-5.3-.9-12.2-.9H76.1l3.5-10.2c13.4-38.4 41.9-73.9 77-95.6 26.1-16.2 56.9-26.3 85.2-27.9l11.2-.6v30.4c0 22.4.3 30.8 1.2 31.7.8.8 6 1.2 16.7 1.2h15.6L176.3 242.2C70.5 348 65.9 352.8 63.5 358.7L61 365v69.5l8.3 8.3 8.2 8.2h34.7c32.8 0 35-.1 40.5-2.1 5.6-2 10.7-7 123.1-119.3L393 212.5v22.6c0 19.8.2 22.8 1.6 23.3.9.3 12.2.6 25.1.6h23.6l-.6 11.2c-2.5 43-22.9 87.2-55.1 119-24 23.8-55.1 41.2-87.3 48.9l-8.3 2-25.2-14.6c-13.8-8-25.3-14.4-25.5-14.2-.2.2-.2 21.7-.1 47.9l.3 47.4 33.1-19.1c31.4-18.1 33.8-19.3 48.7-24.3 17.6-5.8 33.8-13.2 47.2-21.7 41.3-26 72.6-63.9 89.4-108.5l4-10.5 23.8-.5 23.8-.5V.5L351.4.2c-88-.1-160.4.1-160.7.5zM253 21.3v16.3l-14.3 1.2c-13.2 1.1-29.1 3.7-37.7 6.2-6.3 1.8-6 2.8-6-19.5V5h58v16.3zM380 34v29h-10.9c-10.6 0-11-.1-19.7-4.1-4.9-2.3-12.9-5.7-17.9-7.4l-9-3.3-.3-21.6L322 5h58v29zm127 0v29h-58V5h58v29zM282.9 70.6c10.5 1.5 29 5.8 32.4 7.6 1.5.7 1.7 2.4 1.7 12.1v11.2l-12.7 12.7-12.8 12.8H259V69h6.6c3.7 0 11.4.7 17.3 1.6zM443 97.5V126h-11.8l-5.8-7.3c-3.2-3.9-10.1-11.5-15.4-16.7-5.2-5.3-12.8-12.2-16.7-15.4l-7.3-5.8V69h57v28.5zm-54 26l2.3 2.5h-2.6c-2.2 0-2.7-.5-2.7-2.5 0-1.4.1-2.5.3-2.5.2 0 1.4 1.1 2.7 2.5zm-9 33.7v25.2l-3.7 3.8-3.7 3.8H322v-50.4l3.7-3.8 3.7-3.8H380v25.2zm127 3.8v29l-21.6-.2-21.5-.3-3.8-10c-2.1-5.5-5.4-13.6-7.4-17.9-3.5-7.5-3.7-8.4-3.7-18.7V132h58v29zm-189.8 9.2l.3 24.3 24.3.3c13.3.1 24.2.6 24.2 1s-40.8 41.5-90.7 91.4L184.5 378l-24.7-24.7c-13.7-13.7-24.8-25.2-24.8-25.8 0-1.1 180.1-181.5 181.2-181.5.4 0 .9 10.9 1 24.2zm118 30.8c3.2 9.4 6.8 29 7.5 40.7l.6 11.3H398v-45.4l6.3-6.4 6.2-6.3 11.4.3 11.4.3 1.9 5.5zm71.8 87v29h-20.5c-22.3 0-21.3.3-19.5-6 2.5-8.6 5.1-24.5 6.2-37.7l1.2-14.3H507v29zm-369.3 86.2c13.4 13.4 24.3 24.7 24.3 25.3 0 .5-4.4 5.4-9.7 10.7l-9.8 9.8H92v-50.5l9.7-9.7c5.4-5.4 10.2-9.8 10.8-9.8.5 0 11.9 10.9 25.2 24.2z"/></svg>